<svg width="30" height="30" xmlns="http://www.w3.org/2000/svg" xmlns:xlink="http://www.w3.org/1999/xlink" xml:space="preserve" overflow="hidden"><g><path d="M9.6875 9.6875 6.25 9.6875 6.25 7.5 9.6875 7.5 9.6875 9.6875ZM14.375 7.5 14.375 9.6875 10.9375 9.6875 10.9375 7.5 14.375 7.5ZM19.0625 7.5 19.0625 9.6875 15.625 9.6875 15.625 7.5 19.0625 7.5ZM23.75 7.5 23.75 9.6875 20.3125 9.6875 20.3125 7.5 23.75 7.5ZM23.75 13.125 20.3125 13.125 20.3125 10.9375 23.75 10.9375 23.75 13.125ZM23.75 15.7812 20.3125 16.0938 20.3125 14.375 23.75 14.375 23.75 15.7812ZM9.6875 14.375 9.6875 17.0312 6.25 17.3438 6.25 14.375 9.6875 14.375ZM9.6875 13.125 6.25 13.125 6.25 10.9375 9.6875 10.9375 9.6875 13.125ZM14.375 13.125 10.9375 13.125 10.9375 10.9375 14.375 10.9375 14.375 13.125ZM15.625 13.125 15.625 10.9375 19.0625 10.9375 19.0625 13.125 15.625 13.125ZM14.375 16.625 10.9375 16.9375 10.9375 14.375 14.375 14.375 14.375 16.625ZM15.625 14.375 19.0625 14.375 19.0625 16.1875 15.625 16.5 15.625 14.375ZM25.625 17.5 25.625 5.625 6.25 5.625 6.25 5.3125C6.25 3.75 5 2.5 3.4375 2.5 2.90625 2.5 2.5 2.90625 2.5 3.4375 2.5 3.96875 2.90625 4.375 3.4375 4.375 3.96875 4.375 4.375 4.78125 4.375 5.3125L4.375 20.9375C4.375 22.5 5.625 23.75 7.1875 23.75L8.125 23.75 21.875 23.75 24.6875 23.75C25.2188 23.75 25.625 23.3438 25.625 22.8125 25.625 22.2812 25.2188 21.875 24.6875 21.875L7.1875 21.875C6.65625 21.875 6.25 21.4688 6.25 20.9375L6.25 19.2188 25.625 17.5Z"/><path d="M10 25.625C10 26.6605 9.16053 27.5 8.125 27.5 7.08947 27.5 6.25 26.6605 6.25 25.625 6.25 24.5895 7.08947 23.75 8.125 23.75 9.16053 23.75 10 24.5895 10 25.625Z"/><path d="M23.75 25.625C23.75 26.6605 22.9105 27.5 21.875 27.5 20.8395 27.5 20 26.6605 20 25.625 20 24.5895 20.8395 23.75 21.875 23.75 22.9105 23.75 23.75 24.5895 23.75 25.625Z"/></g></svg>