<svg width="39" height="39" xmlns="http://www.w3.org/2000/svg" xmlns:xlink="http://www.w3.org/1999/xlink" xml:space="preserve" overflow="hidden"><g><path d="M19.5 6.29688C20.1906 6.29688 20.7188 5.76875 20.7188 5.07812 20.7188 4.3875 20.1906 2.64062 19.5 2.64062 18.8094 2.64062 19.6625 3.45312 18.6875 4.26562 18.6469 4.30625 18.6469 4.30625 18.6062 4.34687 18.4438 4.55 18.2812 4.75312 18.2812 5.07812 18.2812 5.76875 18.8094 6.29688 19.5 6.29688Z"/><path d="M15.4375 8.32812C16.1281 8.32812 16.6562 7.8 16.6562 7.10938 16.6562 6.41875 16.1281 4.67188 15.4375 4.67188 14.7469 4.67188 15.6 5.48438 14.625 6.29688 14.5844 6.3375 14.5844 6.3375 14.5437 6.37812 14.3813 6.58125 14.2188 6.78438 14.2188 7.10938 14.2188 7.8 14.7469 8.32812 15.4375 8.32812Z"/><path d="M23.5625 8.32812C24.2531 8.32812 24.7812 7.8 24.7812 7.10938 24.7812 6.41875 24.2531 4.67188 23.5625 4.67188 22.8719 4.67188 23.725 5.48438 22.75 6.29688 22.7094 6.3375 22.7094 6.3375 22.6687 6.37812 22.5063 6.58125 22.3438 6.78438 22.3438 7.10938 22.3438 7.8 22.8719 8.32812 23.5625 8.32812Z"/><path d="M12.1875 23.4812C13.4469 22.2219 15.925 22.2219 17.1844 23.4812 17.5094 23.8062 18.4031 23.8062 18.7281 23.4812 19.9875 22.2219 22.4656 22.2219 23.725 23.4812 24.05 23.8062 24.9438 23.8062 25.2688 23.4812 26.5281 22.2219 29.0063 22.2219 30.2656 23.4812 30.3875 23.6031 30.5906 23.6844 30.8344 23.725L30.8344 17.2656C30.8344 16.1687 28.3563 15.2344 24.7406 14.7469L24.7406 10.3594C24.7406 10.1156 24.2125 9.95312 23.5219 9.95312 22.8313 9.95312 22.3031 10.1156 22.3031 10.3594L22.3031 14.5031C21.775 14.4625 21.2469 14.4625 20.6781 14.4219L20.6781 8.32812C20.6781 8.08437 20.15 7.92188 19.4594 7.92188 18.7688 7.92188 18.2406 8.08437 18.2406 8.32812L18.2406 14.4219C17.6719 14.4219 17.1438 14.4625 16.6156 14.5031L16.6156 10.3594C16.6156 10.1156 16.0875 9.95312 15.3969 9.95312 14.7063 9.95312 14.1781 10.1156 14.1781 10.3594L14.1781 14.7469C10.5625 15.2344 8.08437 16.1687 8.08437 17.2656L8.08437 22.5469C9.01875 22.5469 9.95312 22.8719 10.6031 23.4812 10.9688 23.8062 11.8625 23.8062 12.1875 23.4812Z"/><path d="M30.875 26.1625C30.0219 26.1219 29.1688 25.7969 28.6 25.2281 28.275 24.9031 27.3813 24.9031 27.0562 25.2281 25.7969 26.4875 23.3188 26.4875 22.0594 25.2281 21.7344 24.9031 20.8406 24.9031 20.5156 25.2281 19.2563 26.4875 16.7781 26.4875 15.5188 25.2281 15.1938 24.9031 14.3 24.9031 13.975 25.2281 12.7156 26.4875 10.2375 26.4875 8.97813 25.2281 8.81563 25.0656 8.49062 24.9844 8.20625 24.9844L8.20625 32.2969 30.9562 32.2969 30.9562 26.1625Z"/><path d="M30.875 33.9219 8.125 33.9219C7.43437 33.9219 6.90625 34.45 6.90625 35.1406 6.90625 35.8312 7.43437 36.3594 8.125 36.3594L30.875 36.3594C31.5656 36.3594 32.0938 35.8312 32.0938 35.1406 32.0938 34.45 31.5656 33.9219 30.875 33.9219Z"/></g></svg>